<?xml version="1.0" encoding="UTF-8" standalone="no"?>
<svg
   xmlns:dc="http://purl.org/dc/elements/1.1/"
   xmlns:cc="http://creativecommons.org/ns#"
   xmlns:rdf="http://www.w3.org/1999/02/22-rdf-syntax-ns#"
   xmlns:svg="http://www.w3.org/2000/svg"
   xmlns="http://www.w3.org/2000/svg"
   xmlns:sodipodi="http://sodipodi.sourceforge.net/DTD/sodipodi-0.dtd"
   xmlns:inkscape="http://www.inkscape.org/namespaces/inkscape"
   version="1.1"
   id="Layer_1"
   x="0px"
   y="0px"
   viewBox="0 0 512 512"
   style="enable-background:new 0 0 512 512;"
   xml:space="preserve"
   sodipodi:docname="add-logo.svg"
   inkscape:version="1.0.2-2 (e86c870879, 2021-01-15)"><metadata
   id="metadata53"><rdf:RDF><cc:Work
       rdf:about=""><dc:format>image/svg+xml</dc:format><dc:type
         rdf:resource="http://purl.org/dc/dcmitype/StillImage" /></cc:Work></rdf:RDF></metadata><defs
   id="defs51" /><sodipodi:namedview
   pagecolor="#ffffff"
   bordercolor="#666666"
   borderopacity="1"
   objecttolerance="10"
   gridtolerance="10"
   guidetolerance="10"
   inkscape:pageopacity="0"
   inkscape:pageshadow="2"
   inkscape:window-width="1920"
   inkscape:window-height="1017"
   id="namedview49"
   showgrid="false"
   inkscape:zoom="1.6601562"
   inkscape:cx="256"
   inkscape:cy="352.37647"
   inkscape:window-x="-8"
   inkscape:window-y="-8"
   inkscape:window-maximized="1"
   inkscape:current-layer="g16" />
<g
   id="g16">
	<g
   id="g14"
   transform="translate(-178.29647,-184.32)">
		<g
   id="g12">
			
			<path
   id="path4"
   transform="translate(99.990589,19.275293)"
   d="m 335.69727,360.84375 c -5.813,0 -10.52735,4.71334 -10.52735,10.52734 v 10.52539 h -10.52539 c -5.813,0 -10.52539,4.7114 -10.52539,10.5254 0,5.81299 4.71139,10.52734 10.52539,10.52734 h 10.52539 v 10.52539 c 0,5.813 4.71335,10.52539 10.52735,10.52539 5.813,0 10.52539,-4.71139 10.52539,-10.52539 v -10.52539 h 10.52539 c 5.813,0 10.52539,-4.71338 10.52539,-10.52734 0,-5.81401 -4.71139,-10.5254 -10.52539,-10.5254 h -10.52539 v -10.52539 c 0,-5.813 -4.71139,-10.52734 -10.52539,-10.52734 z m 90.57031,109.91797 c -0.5732,1.06536 -1.28274,2.29844 -2.34375,4.23633 z" />
			
			
			
		</g>
	</g>
</g>
<g
   id="g18">
</g>
<g
   id="g20">
</g>
<g
   id="g22">
</g>
<g
   id="g24">
</g>
<g
   id="g26">
</g>
<g
   id="g28">
</g>
<g
   id="g30">
</g>
<g
   id="g32">
</g>
<g
   id="g34">
</g>
<g
   id="g36">
</g>
<g
   id="g38">
</g>
<g
   id="g40">
</g>
<g
   id="g42">
</g>
<g
   id="g44">
</g>
<g
   id="g46">
</g>
</svg>
